# Wavefront OBJ file automatically generated by Tiled2Unity

# Vertices (Count = 384)
v -352 -96 0
v -368 -96 0
v -368 -80 0
v -352 -80 0
v -384 -96 0
v -384 -80 0
v -400 -96 0
v -400 -80 0
v -416 -96 0
v -416 -80 0
v -272 -112 0
v -288 -112 0
v -288 -96 0
v -272 -96 0
v -304 -112 0
v -304 -96 0
v -320 -112 0
v -320 -96 0
v -336 -112 0
v -352 -112 0
v -336 -96 0
v -400 -112 0
v -416 -112 0
v -560 -112 0
v -576 -112 0
v -576 -96 0
v -560 -96 0
v -592 -112 0
v -592 -96 0
v -608 -112 0
v -608 -96 0
v -624 -112 0
v -624 -96 0
v -640 -112 0
v -640 -96 0
v -240 -128 0
v -256 -128 0
v -256 -112 0
v -240 -112 0
v -272 -128 0
v -288 -128 0
v -304 -128 0
v -320 -128 0
v -336 -128 0
v -416 -128 0
v -432 -128 0
v -432 -112 0
v -448 -128 0
v -448 -112 0
v -544 -128 0
v -560 -128 0
v -544 -112 0
v -624 -128 0
v -640 -128 0
v -144 -144 0
v -160 -144 0
v -160 -128 0
v -144 -128 0
v -176 -144 0
v -176 -128 0
v -192 -144 0
v -192 -128 0
v -208 -144 0
v -208 -128 0
v -224 -144 0
v -240 -144 0
v -224 -128 0
v -432 -144 0
v -448 -144 0
v -464 -144 0
v -464 -128 0
v -480 -144 0
v -480 -128 0
v -496 -144 0
v -496 -128 0
v -512 -144 0
v -512 -128 0
v -528 -144 0
v -528 -128 0
v -544 -144 0
v -624 -144 0
v -640 -144 0
v -192 -160 0
v -208 -160 0
v -224 -160 0
v -240 -160 0
v -624 -160 0
v -640 -160 0
v -112 -176 0
v -128 -176 0
v -128 -160 0
v -112 -160 0
v -144 -176 0
v -144 -160 0
v -160 -176 0
v -160 -160 0
v -176 -176 0
v -176 -160 0
v -192 -176 0
v -624 -176 0
v -640 -176 0
v -160 -192 0
v -176 -192 0
v -192 -192 0
v -208 -192 0
v -208 -176 0
v -224 -192 0
v -224 -176 0
v -624 -192 0
v -640 -192 0
v -656 -192 0
v -656 -176 0
v -176 -208 0
v -192 -208 0
v -208 -208 0
v -224 -208 0
v -640 -208 0
v -656 -208 0
v -176 -224 0
v -192 -224 0
v -208 -224 0
v -224 -224 0
v -304 -224 0
v -320 -224 0
v -320 -208 0
v -304 -208 0
v -336 -224 0
v -336 -208 0
v -352 -224 0
v -352 -208 0
v -368 -224 0
v -368 -208 0
v -384 -224 0
v -384 -208 0
v -400 -224 0
v -400 -208 0
v -416 -224 0
v -432 -224 0
v -432 -208 0
v -416 -208 0
v -448 -224 0
v -448 -208 0
v -464 -224 0
v -464 -208 0
v -480 -224 0
v -480 -208 0
v -496 -224 0
v -496 -208 0
v -512 -224 0
v -512 -208 0
v -528 -224 0
v -528 -208 0
v -544 -224 0
v -544 -208 0
v -560 -224 0
v -560 -208 0
v -576 -224 0
v -576 -208 0
v -592 -224 0
v -592 -208 0
v -608 -224 0
v -608 -208 0
v -624 -224 0
v -624 -208 0
v -640 -224 0
v -656 -224 0
v -176 -240 0
v -192 -240 0
v -208 -240 0
v -224 -240 0
v -256 -240 0
v -272 -240 0
v -272 -224 0
v -256 -224 0
v -288 -240 0
v -288 -224 0
v -304 -240 0
v -320 -240 0
v -640 -240 0
v -656 -240 0
v -176 -256 0
v -192 -256 0
v -208 -256 0
v -224 -256 0
v -256 -256 0
v -272 -256 0
v -288 -256 0
v -304 -256 0
v -320 -256 0
v -336 -256 0
v -336 -240 0
v -384 -256 0
v -400 -256 0
v -400 -240 0
v -384 -240 0
v -640 -256 0
v -656 -256 0
v -208 -272 0
v -224 -272 0
v -304 -272 0
v -320 -272 0
v -384 -272 0
v -400 -272 0
v -416 -272 0
v -416 -256 0
v -432 -272 0
v -432 -256 0
v -448 -272 0
v -448 -256 0
v -464 -272 0
v -464 -256 0
v -480 -272 0
v -480 -256 0
v -496 -272 0
v -496 -256 0
v -512 -272 0
v -512 -256 0
v -528 -272 0
v -528 -256 0
v -544 -272 0
v -544 -256 0
v -560 -272 0
v -560 -256 0
v -576 -272 0
v -576 -256 0
v -592 -272 0
v -592 -256 0
v -608 -272 0
v -608 -256 0
v -624 -272 0
v -624 -256 0
v -640 -272 0
v -656 -272 0
v -192 -288 0
v -208 -288 0
v -192 -272 0
v -304 -288 0
v -320 -288 0
v -416 -288 0
v -432 -288 0
v -464 -288 0
v -480 -288 0
v -496 -288 0
v -512 -288 0
v -528 -288 0
v -544 -288 0
v -560 -288 0
v -576 -288 0
v -192 -304 0
v -208 -304 0
v -304 -304 0
v -320 -304 0
v -416 -304 0
v -432 -304 0
v -448 -304 0
v -448 -288 0
v -544 -304 0
v -560 -304 0
v -224 -320 0
v -240 -320 0
v -240 -304 0
v -224 -304 0
v -304 -320 0
v -320 -320 0
v -432 -320 0
v -448 -320 0
v -464 -320 0
v -464 -304 0
v -480 -320 0
v -480 -304 0
v -528 -320 0
v -544 -320 0
v -528 -304 0
v -560 -320 0
v -784 -320 0
v -800 -320 0
v -800 -304 0
v -784 -304 0
v -304 -336 0
v -320 -336 0
v -464 -336 0
v -480 -336 0
v -496 -336 0
v -496 -320 0
v -512 -336 0
v -528 -336 0
v -512 -320 0
v -544 -336 0
v -736 -336 0
v -752 -336 0
v -752 -320 0
v -736 -320 0
v -768 -336 0
v -768 -320 0
v -800 -336 0
v -816 -336 0
v -816 -320 0
v -304 -352 0
v -320 -352 0
v -480 -352 0
v -496 -352 0
v -512 -352 0
v -528 -352 0
v -624 -352 0
v -640 -352 0
v -640 -336 0
v -624 -336 0
v -656 -352 0
v -656 -336 0
v -736 -352 0
v -752 -352 0
v -768 -352 0
v -800 -352 0
v -816 -352 0
v -304 -368 0
v -320 -368 0
v -368 -368 0
v -384 -368 0
v -384 -352 0
v -368 -352 0
v -608 -368 0
v -624 -368 0
v -608 -352 0
v -640 -368 0
v -704 -368 0
v -720 -368 0
v -720 -352 0
v -704 -352 0
v -736 -368 0
v -752 -368 0
v -768 -368 0
v -304 -384 0
v -320 -384 0
v -368 -384 0
v -384 -384 0
v -400 -384 0
v -400 -368 0
v -608 -384 0
v -624 -384 0
v -304 -400 0
v -320 -400 0
v -384 -400 0
v -400 -400 0
v -592 -400 0
v -608 -400 0
v -592 -384 0
v -624 -400 0
v -304 -416 0
v -320 -416 0
v -384 -416 0
v -400 -416 0
v -416 -416 0
v -416 -400 0
v -592 -416 0
v -608 -416 0
v -304 -432 0
v -320 -432 0
v -400 -432 0
v -416 -432 0
v -560 -432 0
v -576 -432 0
v -576 -416 0
v -560 -416 0
v -592 -432 0
v -416 -448 0
v -432 -448 0
v -432 -432 0
v -528 -448 0
v -544 -448 0
v -544 -432 0
v -528 -432 0
v -560 -448 0
v -432 -464 0
v -448 -464 0
v -448 -448 0
v -464 -464 0
v -464 -448 0
v -480 -464 0
v -480 -448 0
v -496 -464 0
v -496 -448 0
v -512 -464 0
v -512 -448 0
v -528 -464 0

# Texture cooridinates (Count = 32)
vt 0.0001220703 0.6251221
vt 0.1248779 0.6251221
vt 0.1248779 0.7498779
vt 0.0001220703 0.7498779
vt 0.0001220703 0.8751221
vt 0.1248779 0.8751221
vt 0.1248779 0.9998779
vt 0.0001220703 0.9998779
vt 0.1251221 0.8751221
vt 0.2498779 0.8751221
vt 0.2498779 0.9998779
vt 0.1251221 0.9998779
vt 0.2501221 0.8751221
vt 0.3748779 0.8751221
vt 0.3748779 0.9998779
vt 0.2501221 0.9998779
vt 0.0001220703 0.5001221
vt 0.1248779 0.5001221
vt 0.1248779 0.6248779
vt 0.0001220703 0.6248779
vt 0.1251221 0.5001221
vt 0.2498779 0.5001221
vt 0.2498779 0.6248779
vt 0.1251221 0.6248779
vt 0.0001220703 0.3751221
vt 0.1248779 0.3751221
vt 0.1248779 0.4998779
vt 0.0001220703 0.4998779
vt 0.1251221 0.3751221
vt 0.2498779 0.3751221
vt 0.2498779 0.4998779
vt 0.1251221 0.4998779

# Normal
vn 0 0 -1

# Groups (Count = 1)

g mesh_0001
f 1/1/1 2/2/1 3/3/1 4/4/1
f 2/1/1 5/2/1 6/3/1 3/4/1
f 5/1/1 7/2/1 8/3/1 6/4/1
f 7/1/1 9/2/1 10/3/1 8/4/1
f 11/1/1 12/2/1 13/3/1 14/4/1
f 12/1/1 15/2/1 16/3/1 13/4/1
f 15/1/1 17/2/1 18/3/1 16/4/1
f 19/1/1 20/2/1 1/3/1 21/4/1
f 22/1/1 23/2/1 9/3/1 7/4/1
f 24/1/1 25/2/1 26/3/1 27/4/1
f 25/1/1 28/2/1 29/3/1 26/4/1
f 28/1/1 30/2/1 31/3/1 29/4/1
f 30/1/1 32/2/1 33/3/1 31/4/1
f 32/1/1 34/2/1 35/3/1 33/4/1
f 36/1/1 37/2/1 38/3/1 39/4/1
f 37/1/1 40/2/1 11/3/1 38/4/1
f 40/1/1 41/2/1 12/3/1 11/4/1
f 42/1/1 43/2/1 17/3/1 15/4/1
f 43/1/1 44/2/1 19/3/1 17/4/1
f 45/1/1 46/2/1 47/3/1 23/4/1
f 46/1/1 48/2/1 49/3/1 47/4/1
f 50/1/1 51/2/1 24/3/1 52/4/1
f 53/1/1 54/2/1 34/3/1 32/4/1
f 55/1/1 56/2/1 57/3/1 58/4/1
f 56/1/1 59/2/1 60/3/1 57/4/1
f 59/1/1 61/2/1 62/3/1 60/4/1
f 61/1/1 63/2/1 64/3/1 62/4/1
f 65/1/1 66/2/1 36/3/1 67/4/1
f 68/1/1 69/2/1 48/3/1 46/4/1
f 69/1/1 70/2/1 71/3/1 48/4/1
f 70/1/1 72/2/1 73/3/1 71/4/1
f 72/1/1 74/2/1 75/3/1 73/4/1
f 74/1/1 76/2/1 77/3/1 75/4/1
f 76/1/1 78/2/1 79/3/1 77/4/1
f 78/1/1 80/2/1 50/3/1 79/4/1
f 81/1/1 82/2/1 54/3/1 53/4/1
f 83/1/1 84/2/1 63/3/1 61/4/1
f 84/1/1 85/2/1 65/3/1 63/4/1
f 85/1/1 86/2/1 66/3/1 65/4/1
f 87/1/1 88/2/1 82/3/1 81/4/1
f 89/5/1 90/6/1 91/7/1 92/8/1
f 90/9/1 93/10/1 94/11/1 91/12/1
f 93/13/1 95/14/1 96/15/1 94/16/1
f 95/13/1 97/14/1 98/15/1 96/16/1
f 97/13/1 99/14/1 83/15/1 98/16/1
f 100/1/1 101/2/1 88/3/1 87/4/1
f 102/5/1 103/6/1 97/7/1 95/8/1
f 103/9/1 104/10/1 99/11/1 97/12/1
f 104/13/1 105/14/1 106/15/1 99/16/1
f 105/13/1 107/14/1 108/15/1 106/16/1
f 109/1/1 110/2/1 101/3/1 100/4/1
f 110/1/1 111/2/1 112/3/1 101/4/1
f 113/5/1 114/6/1 104/7/1 103/8/1
f 114/9/1 115/10/1 105/11/1 104/12/1
f 115/13/1 116/14/1 107/15/1 105/16/1
f 117/1/1 118/2/1 111/3/1 110/4/1
f 119/5/1 120/6/1 114/7/1 113/8/1
f 120/9/1 121/10/1 115/11/1 114/12/1
f 121/13/1 122/14/1 116/15/1 115/16/1
f 123/1/1 124/2/1 125/3/1 126/4/1
f 124/1/1 127/2/1 128/3/1 125/4/1
f 127/1/1 129/2/1 130/3/1 128/4/1
f 129/1/1 131/2/1 132/3/1 130/4/1
f 131/1/1 133/2/1 134/3/1 132/4/1
f 133/1/1 135/2/1 136/3/1 134/4/1
f 137/1/1 138/2/1 139/3/1 140/4/1
f 138/1/1 141/2/1 142/3/1 139/4/1
f 141/1/1 143/2/1 144/3/1 142/4/1
f 143/1/1 145/2/1 146/3/1 144/4/1
f 145/1/1 147/2/1 148/3/1 146/4/1
f 147/1/1 149/2/1 150/3/1 148/4/1
f 149/1/1 151/2/1 152/3/1 150/4/1
f 151/1/1 153/2/1 154/3/1 152/4/1
f 153/1/1 155/2/1 156/3/1 154/4/1
f 155/1/1 157/2/1 158/3/1 156/4/1
f 157/1/1 159/2/1 160/3/1 158/4/1
f 159/1/1 161/2/1 162/3/1 160/4/1
f 161/1/1 163/2/1 164/3/1 162/4/1
f 163/1/1 165/2/1 117/3/1 164/4/1
f 165/1/1 166/2/1 118/3/1 117/4/1
f 167/5/1 168/6/1 120/7/1 119/8/1
f 168/9/1 169/10/1 121/11/1 120/12/1
f 169/13/1 170/14/1 122/15/1 121/16/1
f 171/5/1 172/6/1 173/7/1 174/8/1
f 172/9/1 175/10/1 176/11/1 173/12/1
f 175/13/1 177/14/1 123/15/1 176/16/1
f 177/1/1 178/2/1 124/3/1 123/4/1
f 179/1/1 180/2/1 166/3/1 165/4/1
f 181/5/1 182/6/1 168/7/1 167/8/1
f 182/9/1 183/10/1 169/11/1 168/12/1
f 183/13/1 184/14/1 170/15/1 169/16/1
f 185/1/1 186/2/1 172/3/1 171/4/1
f 186/1/1 187/2/1 175/3/1 172/4/1
f 187/1/1 188/2/1 177/3/1 175/4/1
f 188/1/1 189/2/1 178/3/1 177/4/1
f 189/1/1 190/2/1 191/3/1 178/4/1
f 192/1/1 193/2/1 194/3/1 195/4/1
f 196/1/1 197/2/1 180/3/1 179/4/1
f 198/5/1 199/6/1 184/7/1 183/8/1
f 200/1/1 201/2/1 189/3/1 188/4/1
f 202/1/1 203/2/1 193/3/1 192/4/1
f 203/1/1 204/2/1 205/3/1 193/4/1
f 204/1/1 206/2/1 207/3/1 205/4/1
f 206/1/1 208/2/1 209/3/1 207/4/1
f 208/1/1 210/2/1 211/3/1 209/4/1
f 210/1/1 212/2/1 213/3/1 211/4/1
f 212/1/1 214/2/1 215/3/1 213/4/1
f 214/1/1 216/2/1 217/3/1 215/4/1
f 216/1/1 218/2/1 219/3/1 217/4/1
f 218/1/1 220/2/1 221/3/1 219/4/1
f 220/1/1 222/2/1 223/3/1 221/4/1
f 222/1/1 224/2/1 225/3/1 223/4/1
f 224/1/1 226/2/1 227/3/1 225/4/1
f 226/1/1 228/2/1 229/3/1 227/4/1
f 228/1/1 230/2/1 231/3/1 229/4/1
f 230/1/1 232/2/1 196/3/1 231/4/1
f 232/1/1 233/2/1 197/3/1 196/4/1
f 234/5/1 235/6/1 198/7/1 236/8/1
f 237/1/1 238/2/1 201/3/1 200/4/1
f 239/1/1 240/2/1 206/3/1 204/4/1
f 241/1/1 242/2/1 212/3/1 210/4/1
f 242/1/1 243/2/1 214/3/1 212/4/1
f 243/1/1 244/2/1 216/3/1 214/4/1
f 244/1/1 245/2/1 218/3/1 216/4/1
f 245/1/1 246/2/1 220/3/1 218/4/1
f 246/1/1 247/2/1 222/3/1 220/4/1
f 247/1/1 248/2/1 224/3/1 222/4/1
f 249/5/1 250/6/1 235/7/1 234/8/1
f 251/1/1 252/2/1 238/3/1 237/4/1
f 253/1/1 254/2/1 240/3/1 239/4/1
f 254/1/1 255/2/1 256/3/1 240/4/1
f 257/1/1 258/2/1 247/3/1 246/4/1
f 259/5/1 260/6/1 261/7/1 262/8/1
f 263/1/1 264/2/1 252/3/1 251/4/1
f 265/1/1 266/2/1 255/3/1 254/4/1
f 266/1/1 267/2/1 268/3/1 255/4/1
f 267/1/1 269/2/1 270/3/1 268/4/1
f 271/1/1 272/2/1 257/3/1 273/4/1
f 272/1/1 274/2/1 258/3/1 257/4/1
f 275/1/1 276/2/1 277/3/1 278/4/1
f 279/1/1 280/2/1 264/3/1 263/4/1
f 281/1/1 282/2/1 269/3/1 267/4/1
f 282/1/1 283/2/1 284/3/1 269/4/1
f 285/1/1 286/2/1 271/3/1 287/4/1
f 286/1/1 288/2/1 272/3/1 271/4/1
f 289/17/1 290/18/1 291/19/1 292/20/1
f 290/21/1 293/22/1 294/23/1 291/24/1
f 295/1/1 296/2/1 297/3/1 276/4/1
f 298/1/1 299/2/1 280/3/1 279/4/1
f 300/1/1 301/2/1 283/3/1 282/4/1
f 301/1/1 302/2/1 285/3/1 283/4/1
f 302/1/1 303/2/1 286/3/1 285/4/1
f 304/1/1 305/2/1 306/3/1 307/4/1
f 305/1/1 308/2/1 309/3/1 306/4/1
f 310/25/1 311/26/1 290/27/1 289/28/1
f 311/29/1 312/30/1 293/31/1 290/32/1
f 313/1/1 314/2/1 296/3/1 295/4/1
f 315/1/1 316/2/1 299/3/1 298/4/1
f 317/1/1 318/2/1 319/3/1 320/4/1
f 321/1/1 322/2/1 304/3/1 323/4/1
f 322/1/1 324/2/1 305/3/1 304/4/1
f 325/1/1 326/2/1 327/3/1 328/4/1
f 326/1/1 329/2/1 310/3/1 327/4/1
f 329/1/1 330/2/1 311/3/1 310/4/1
f 330/1/1 331/2/1 312/3/1 311/4/1
f 332/1/1 333/2/1 316/3/1 315/4/1
f 334/1/1 335/2/1 318/3/1 317/4/1
f 335/1/1 336/2/1 337/3/1 318/4/1
f 338/1/1 339/2/1 322/3/1 321/4/1
f 340/1/1 341/2/1 333/3/1 332/4/1
f 342/1/1 343/2/1 336/3/1 335/4/1
f 344/1/1 345/2/1 338/3/1 346/4/1
f 345/1/1 347/2/1 339/3/1 338/4/1
f 348/1/1 349/2/1 341/3/1 340/4/1
f 350/1/1 351/2/1 343/3/1 342/4/1
f 351/1/1 352/2/1 353/3/1 343/4/1
f 354/1/1 355/2/1 345/3/1 344/4/1
f 356/1/1 357/2/1 349/3/1 348/4/1
f 358/1/1 359/2/1 352/3/1 351/4/1
f 360/1/1 361/2/1 362/3/1 363/4/1
f 361/1/1 364/2/1 354/3/1 362/4/1
f 365/1/1 366/2/1 367/3/1 359/4/1
f 368/1/1 369/2/1 370/3/1 371/4/1
f 369/1/1 372/2/1 360/3/1 370/4/1
f 373/1/1 374/2/1 375/3/1 366/4/1
f 374/1/1 376/2/1 377/3/1 375/4/1
f 376/1/1 378/2/1 379/3/1 377/4/1
f 378/1/1 380/2/1 381/3/1 379/4/1
f 380/1/1 382/2/1 383/3/1 381/4/1
f 382/1/1 384/2/1 368/3/1 383/4/1

